<svg width="193" height="60" viewBox="0 0 193 60" fill="none" xmlns="http://www.w3.org/2000/svg">
<g clip-path="url(#clip0_2_1002)">
<path d="M0 6C0 2.68629 2.68629 0 6 0H187C190.314 0 193 2.68629 193 6V54C193 57.3137 190.314 60 187 60H5.99999C2.68629 60 0 57.3137 0 54V6Z" fill="#35B8BE"/>
<g opacity="0.2">
<path opacity="0.2" fill-rule="evenodd" clip-rule="evenodd" d="M-2.51684 -57.0479C3.24083 -53.3019 4.24992 -45.4661 6.65507 -38.9561C8.89269 -32.9001 11.1617 -27.001 10.9716 -20.543C10.7522 -12.935 11.4722 -3.55403 5.50394 0.998966C-0.507473 5.58697 -8.99553 0.126048 -16.5147 0.433048C-23.3177 0.709048 -30.6694 6.60511 -36.3114 2.70111C-42.0133 -1.24689 -39.2907 -10.521 -41.7879 -17.063C-44.0912 -23.096 -50.8893 -27.4821 -50.2887 -33.9161C-49.6793 -40.4461 -43.6836 -44.8352 -38.7998 -49.0972C-34.0326 -53.2552 -28.7942 -56.679 -22.6525 -58.024C-15.9249 -59.499 -8.33035 -60.8289 -2.51684 -57.0479Z" stroke="white"/>
<path opacity="0.2" fill-rule="evenodd" clip-rule="evenodd" d="M1.03655 -64.613C8.19617 -59.955 9.45311 -50.2132 12.4461 -42.1272C15.2314 -34.5972 18.0499 -27.268 17.8217 -19.239C17.5523 -9.78802 18.4516 1.86908 11.0333 7.52708C3.56121 13.2271 -6.99303 6.43482 -16.3403 6.80882C-24.798 7.15082 -33.9347 14.4749 -40.9513 9.61986C-48.0423 4.71286 -44.6614 -6.81215 -47.7689 -14.9422C-50.6346 -22.4422 -59.0883 -27.895 -58.3496 -35.888C-57.5953 -44.001 -50.1428 -49.4548 -44.0736 -54.7478C-38.1493 -59.9128 -31.6383 -64.1662 -24.0025 -65.8352C-15.635 -67.6662 -6.1936 -69.317 1.03655 -64.613Z" stroke="white"/>
<path opacity="0.2" fill-rule="evenodd" clip-rule="evenodd" d="M4.34005 -71.6342C12.8017 -66.1342 14.2908 -54.6263 17.8295 -45.0673C21.1222 -36.1733 24.4552 -27.5132 24.1867 -18.0312C23.8713 -6.86615 24.9372 6.90898 16.1728 13.588C7.34478 20.318 -5.12971 12.2929 -16.1738 12.7359C-26.1667 13.1359 -36.962 21.784 -45.2541 16.045C-53.6344 10.245 -49.6421 -3.36512 -53.317 -12.9701C-56.7048 -21.8291 -66.6957 -28.2762 -65.8199 -37.7182C-64.9313 -47.3052 -56.1258 -53.746 -48.9554 -59.995C-41.9564 -66.095 -34.26 -71.1173 -25.2419 -73.0883C-15.3646 -75.2443 -4.20877 -77.1912 4.34005 -71.6342Z" stroke="white"/>
<path opacity="0.2" fill-rule="evenodd" clip-rule="evenodd" d="M7.76116 -78.9271C17.5738 -72.5451 19.3029 -59.2058 23.4088 -48.1268C27.2297 -37.8158 31.0945 -27.7736 30.7859 -16.7786C30.4244 -3.83161 31.6677 12.1371 21.5004 19.8801C11.2645 27.6801 -3.2036 18.3731 -16.0112 18.8801C-27.601 19.3401 -40.1166 29.3681 -49.7333 22.7121C-59.4519 15.9871 -54.8277 0.206046 -59.0884 -10.931C-63.0189 -21.202 -74.6068 -28.6787 -73.5879 -39.6307C-72.5592 -50.7427 -62.3488 -58.2109 -54.0351 -65.4549C-45.9193 -72.5249 -37.0002 -78.3467 -26.538 -80.6287C-15.0844 -83.1167 -2.14845 -85.3741 7.76116 -78.9271Z" stroke="white"/>
<path opacity="0.2" fill-rule="evenodd" clip-rule="evenodd" d="M11.9484 -87.8416C23.4108 -80.3826 25.4358 -64.8017 30.2334 -51.8567C34.6988 -39.8107 39.2172 -28.082 38.8547 -15.24C38.4334 -0.119013 39.8834 18.5343 28.0114 27.5793C16.0592 36.6863 -0.84844 25.813 -15.8103 26.406C-29.3507 26.942 -43.9707 38.6502 -55.2068 30.8762C-66.5625 23.0192 -61.1605 4.58639 -66.1422 -8.42361C-70.736 -20.4236 -84.2744 -29.1546 -83.0909 -41.9446C-81.8908 -54.9236 -69.963 -63.6448 -60.2532 -72.1038C-50.7737 -80.3618 -40.3547 -87.158 -28.132 -89.824C-14.7415 -92.74 0.371295 -95.3716 11.9484 -87.8416Z" stroke="white"/>
<path opacity="0.2" fill-rule="evenodd" clip-rule="evenodd" d="M16.5167 -97.5646C29.7847 -88.9366 32.1272 -70.9079 37.6781 -55.9299C42.846 -41.9919 48.0766 -28.4197 47.6641 -13.5627C47.1743 3.93233 48.8584 25.512 35.124 35.972C21.2907 46.508 1.72917 33.9252 -15.584 34.6112C-31.2513 35.2282 -48.1667 48.7742 -61.1692 39.7772C-74.3099 30.6862 -68.0624 9.36095 -73.8289 -5.69305C-79.1467 -19.574 -94.813 -29.6818 -93.4473 -44.4758C-92.06 -59.4948 -78.262 -69.5759 -67.0259 -79.3669C-56.0533 -88.9189 -44.003 -96.781 -29.8602 -99.861C-14.3682 -103.237 3.11837 -106.28 16.5167 -97.5646Z" stroke="white"/>
<path opacity="0.2" fill-rule="evenodd" clip-rule="evenodd" d="M20.9576 -107.021C35.9783 -97.2511 38.6313 -76.8452 44.92 -59.8912C50.7727 -44.1152 56.695 -28.7521 56.2296 -11.9341C55.681 7.86586 57.5845 32.2932 42.0397 44.1332C26.3803 56.0562 4.23522 41.8099 -15.3636 42.5829C-33.0961 43.2829 -52.2462 58.6112 -66.9661 48.4272C-81.8428 38.1342 -74.7723 13.9969 -81.302 -3.04205C-87.3232 -18.7531 -105.059 -30.196 -103.515 -46.942C-101.947 -63.942 -86.3278 -75.3527 -73.6094 -86.4297C-61.1947 -97.2417 -47.5495 -106.139 -31.5394 -109.624C-14.0048 -113.442 5.78998 -116.886 20.9576 -107.021Z" stroke="white"/>
<path opacity="0.2" fill-rule="evenodd" clip-rule="evenodd" d="M25.0185 -115.666C41.642 -104.856 44.5791 -82.2758 51.5398 -63.5178C58.0166 -46.0598 64.5698 -29.0619 64.0574 -10.4519C63.4519 11.4581 65.5602 38.4892 48.3587 51.5882C31.0299 64.7822 6.52575 49.0174 -15.1657 49.8714C-34.7919 50.6414 -55.9788 67.6043 -72.2692 56.3323C-88.7281 44.9403 -80.9101 18.2322 -88.1403 -0.61982C-94.8022 -18.0078 -114.432 -30.6699 -112.724 -49.1999C-110.99 -68.0089 -93.7069 -80.6368 -79.6326 -92.8928C-65.8953 -104.855 -50.7953 -114.693 -33.0794 -118.553C-13.6726 -122.774 8.22944 -126.582 25.0185 -115.666Z" stroke="white"/>
<path opacity="0.2" fill-rule="evenodd" clip-rule="evenodd" d="M29.333 -124.849C47.6592 -112.93 50.8981 -88.0429 58.573 -67.3619C65.715 -48.1159 72.9413 -29.3789 72.375 -8.86189C71.7098 15.2861 74.0405 45.082 55.0726 59.52C35.9685 74.062 8.9554 56.6841 -14.9531 57.6201C-36.5887 58.4711 -59.9427 77.1652 -77.9025 64.7392C-96.0523 52.1812 -87.431 22.7389 -95.3988 1.96088C-102.747 -17.2041 -124.384 -31.1629 -122.502 -51.5889C-120.592 -72.3229 -101.537 -86.241 -86.0261 -99.751C-70.8829 -112.937 -54.2379 -123.786 -34.7087 -128.034C-13.318 -132.687 10.8286 -136.885 29.333 -124.849Z" stroke="white"/>
<path opacity="0.2" fill-rule="evenodd" clip-rule="evenodd" d="M34.0258 -134.843C54.2075 -121.717 57.7736 -94.3178 66.2245 -71.5428C74.0885 -50.3558 82.0465 -29.7249 81.4254 -7.14288C80.6936 19.4461 83.2565 52.2512 62.3782 68.1462C41.348 84.1562 11.5996 65.0224 -14.7239 66.0534C-38.5461 66.9864 -64.2602 87.5694 -84.0344 73.8864C-104.02 60.0604 -94.5279 27.6503 -103.302 4.7663C-111.393 -16.3337 -135.219 -31.7076 -133.147 -54.1946C-131.045 -77.0196 -110.069 -92.3436 -92.9878 -107.216C-76.3154 -121.733 -57.9892 -133.675 -36.4858 -138.353C-12.9359 -143.476 13.6481 -148.099 34.0258 -134.843Z" stroke="white"/>
</g>
</g>
<defs>
<clipPath id="clip0_2_1002">
<path d="M0 6C0 2.68629 2.68629 0 6 0H187C190.314 0 193 2.68629 193 6V54C193 57.3137 190.314 60 187 60H5.99999C2.68629 60 0 57.3137 0 54V6Z" fill="white"/>
</clipPath>
</defs>
</svg>
