<svg width="162" height="60" viewBox="0 0 162 60" fill="none" xmlns="http://www.w3.org/2000/svg">
<g clip-path="url(#clip0_2_1327)">
<path d="M0 4C0 1.79086 1.79086 0 4 0H158C160.209 0 162 1.79086 162 4V56C162 58.2091 160.209 60 158 60H4C1.79086 60 0 58.2091 0 56V4Z" fill="white"/>
<g opacity="0.2">
<path opacity="0.2" fill-rule="evenodd" clip-rule="evenodd" d="M-2.11261 -57.048C2.72025 -53.302 3.56726 -45.4662 5.58609 -38.9562C7.4643 -32.9002 9.36883 -27.0011 9.2093 -20.5431C9.0251 -12.9351 9.62952 -3.55416 4.61985 0.998844C-0.425994 5.58684 -7.55068 0.125926 -13.8621 0.432926C-19.5724 0.708926 -25.7432 6.60499 -30.4791 2.70099C-35.265 -1.24701 -32.9798 -10.5212 -35.0759 -17.0632C-37.0092 -23.0962 -42.7154 -27.4822 -42.2113 -33.9162C-41.6998 -40.4462 -36.6671 -44.8353 -32.5678 -49.0973C-28.5663 -53.2553 -24.1693 -56.6791 -19.014 -58.0241C-13.3671 -59.4991 -6.99235 -60.829 -2.11261 -57.048Z" stroke="white"/>
<path opacity="0.2" fill-rule="evenodd" clip-rule="evenodd" d="M0.870017 -64.6129C6.87964 -59.9549 7.93469 -50.2131 10.4469 -42.1271C12.7848 -34.5971 15.1507 -27.2679 14.9591 -19.2389C14.7329 -9.7879 15.4878 1.86921 9.26111 7.52721C2.98916 13.2272 -5.86984 6.43494 -13.7157 6.80894C-20.815 7.15094 -28.4841 14.475 -34.3736 9.61998C-40.3257 4.71298 -37.4878 -6.81203 -40.0963 -14.942C-42.5016 -22.442 -49.5975 -27.8948 -48.9775 -35.8878C-48.3443 -44.0008 -42.0888 -49.4547 -36.9944 -54.7477C-32.0218 -59.9127 -26.5565 -64.1661 -20.1473 -65.8351C-13.1237 -67.6661 -5.19882 -69.3169 0.870017 -64.6129Z" stroke="white"/>
<path opacity="0.2" fill-rule="evenodd" clip-rule="evenodd" d="M3.64294 -71.634C10.7454 -66.134 11.9954 -54.6261 14.9657 -45.0671C17.7295 -36.1731 20.5271 -27.513 20.3018 -18.031C20.037 -6.86597 20.9317 6.90917 13.5751 13.5882C6.16505 20.3182 -4.30577 12.2931 -13.576 12.7361C-21.9638 13.1361 -31.0251 21.7842 -37.9853 16.0452C-45.0196 10.2452 -41.6685 -3.36494 -44.7531 -12.9699C-47.5967 -21.8289 -55.9829 -28.276 -55.2478 -37.718C-54.5019 -47.305 -47.1107 -53.7458 -41.0921 -59.9948C-35.2173 -66.0948 -28.7571 -71.1171 -21.1875 -73.0881C-12.8967 -75.2441 -3.53275 -77.191 3.64294 -71.634Z" stroke="white"/>
<path opacity="0.2" fill-rule="evenodd" clip-rule="evenodd" d="M6.51453 -78.9272C14.751 -72.5452 16.2024 -59.2059 19.6489 -48.1269C22.856 -37.8159 26.1 -27.7737 25.841 -16.7787C25.5376 -3.83173 26.5811 12.137 18.0469 19.88C9.45519 27.68 -2.68906 18.373 -13.4394 18.88C-23.1677 19.34 -33.673 29.368 -41.7451 22.712C-49.9026 15.987 -46.0212 0.205924 -49.5975 -10.9311C-52.8967 -21.2021 -62.6233 -28.6788 -61.7681 -39.6308C-60.9046 -50.7428 -52.3343 -58.211 -45.3559 -65.455C-38.5437 -72.525 -31.0572 -78.3468 -22.2755 -80.6288C-12.6615 -83.1168 -1.80339 -85.3742 6.51453 -78.9272Z" stroke="white"/>
<path opacity="0.2" fill-rule="evenodd" clip-rule="evenodd" d="M10.0292 -87.8417C19.6505 -80.3827 21.3503 -64.8018 25.3773 -51.8568C29.1255 -39.8108 32.9181 -28.0821 32.6138 -15.2401C32.2602 -0.119135 33.4772 18.5342 23.5122 27.5792C13.4797 36.6862 -0.712165 25.8129 -13.2709 26.4059C-24.6364 26.9419 -36.9081 38.6501 -46.3394 30.8761C-55.8711 23.0191 -51.3368 4.58627 -55.5183 -8.42373C-59.3743 -20.4237 -70.7381 -29.1547 -69.7447 -41.9447C-68.7374 -54.9237 -58.7254 -63.6449 -50.5753 -72.1039C-42.6183 -80.3619 -33.8728 -87.1581 -23.6134 -89.8241C-12.3737 -92.7401 0.311654 -95.3717 10.0292 -87.8417Z" stroke="white"/>
<path opacity="0.2" fill-rule="evenodd" clip-rule="evenodd" d="M13.8637 -97.5649C25.0006 -88.9369 26.9668 -70.9081 31.6262 -55.9301C35.964 -41.9921 40.3544 -28.4199 40.0082 -13.5629C39.5971 3.93208 41.0106 25.5118 29.4823 35.9718C17.871 46.5078 1.45142 33.9249 -13.0809 34.6109C-26.2317 35.2279 -40.4301 48.7739 -51.3441 39.7769C-62.3741 30.6859 -57.1301 9.36071 -61.9704 -5.69329C-66.434 -19.5743 -79.584 -29.682 -78.4376 -44.476C-77.2732 -59.495 -65.6914 -69.5761 -56.2601 -79.3671C-47.0499 -88.9191 -36.9352 -96.7813 -25.064 -99.8613C-12.0604 -103.237 2.61749 -106.28 13.8637 -97.5649Z" stroke="white"/>
<path opacity="0.2" fill-rule="evenodd" clip-rule="evenodd" d="M17.5914 -107.021C30.1994 -97.2511 32.4263 -76.8452 37.7049 -59.8912C42.6175 -44.1152 47.5885 -28.7521 47.1979 -11.9341C46.7374 7.86586 48.3352 32.2932 35.2872 44.1332C22.143 56.0562 3.55497 41.8099 -12.8958 42.5829C-27.7801 43.2829 -43.8543 58.6112 -56.2099 48.4272C-68.6971 38.1342 -62.7623 13.9969 -68.2431 -3.04205C-73.2972 -18.7531 -88.1839 -30.196 -86.8879 -46.942C-85.5722 -63.942 -72.4617 -75.3527 -61.7861 -86.4297C-51.3655 -97.2417 -39.912 -106.139 -26.4734 -109.624C-11.7553 -113.442 4.85999 -116.886 17.5914 -107.021Z" stroke="white"/>
<path opacity="0.2" fill-rule="evenodd" clip-rule="evenodd" d="M20.9999 -115.666C34.9533 -104.856 37.4187 -82.2759 43.2613 -63.5179C48.6978 -46.0599 54.1984 -29.062 53.7683 -10.452C53.2601 11.458 55.0298 38.4891 40.5912 51.5881C26.0458 64.7821 5.47753 49.0173 -12.7298 49.8713C-29.2036 50.6413 -46.9875 67.6042 -60.6612 56.3322C-74.4765 44.9402 -67.9142 18.2321 -73.9831 -0.619942C-79.575 -18.0079 -96.0521 -30.67 -94.6179 -49.2C-93.1624 -68.009 -78.6556 -80.6369 -66.8419 -92.8929C-55.3111 -104.855 -42.6365 -114.693 -27.7662 -118.553C-11.4766 -122.774 6.90757 -126.582 20.9999 -115.666Z" stroke="white"/>
<path opacity="0.2" fill-rule="evenodd" clip-rule="evenodd" d="M24.6215 -124.849C40.0041 -112.93 42.7228 -88.0429 49.1649 -67.3619C55.1598 -48.1159 61.2253 -29.3789 60.75 -8.86189C60.1916 15.2861 62.148 45.082 46.2267 59.52C30.1912 74.062 7.51696 56.6841 -12.5513 57.6201C-30.7117 58.4711 -50.3146 77.1652 -65.3896 64.7392C-80.6242 52.1812 -73.3876 22.7389 -80.0757 1.96088C-86.2432 -17.2041 -104.405 -31.1629 -102.826 -51.5889C-101.222 -72.3229 -85.2276 -86.241 -72.2084 -99.751C-59.4976 -112.937 -45.5261 -123.786 -29.1337 -128.034C-11.1788 -132.687 9.08925 -136.885 24.6215 -124.849Z" stroke="white"/>
<path opacity="0.2" fill-rule="evenodd" clip-rule="evenodd" d="M28.5605 -134.843C45.5006 -121.717 48.4939 -94.3178 55.5874 -71.5428C62.1883 -50.3558 68.8681 -29.7249 68.3467 -7.14288C67.7324 19.4461 69.8837 52.2512 52.3589 68.1462C34.7066 84.1562 9.73643 65.0224 -12.3589 66.0534C-32.3548 66.9864 -53.9386 87.5694 -70.5366 73.8864C-87.3123 60.0604 -79.3447 27.6503 -86.7095 4.7663C-93.5012 -16.3337 -113.5 -31.7076 -111.761 -54.1946C-109.996 -77.0196 -92.3894 -92.3436 -78.052 -107.216C-64.0575 -121.733 -48.6749 -133.675 -30.6254 -138.353C-10.8581 -143.476 11.4559 -148.099 28.5605 -134.843Z" stroke="white"/>
</g>
</g>
<defs>
<clipPath id="clip0_2_1327">
<path d="M0 4C0 1.79086 1.79086 0 4 0H158C160.209 0 162 1.79086 162 4V56C162 58.2091 160.209 60 158 60H4C1.79086 60 0 58.2091 0 56V4Z" fill="white"/>
</clipPath>
</defs>
</svg>
